<svg width="24" height="24" viewBox="0 0 24 24" fill="none" xmlns="http://www.w3.org/2000/svg">
<path d="M11.1483 16.905V4.70223C11.1483 4.45807 11.2291 4.25406 11.3908 4.09023C11.5524 3.9264 11.7555 3.84448 12 3.84448C12.2445 3.84448 12.4476 3.9264 12.6093 4.09023C12.7709 4.25406 12.8518 4.45807 12.8518 4.70223V16.905L18.3533 11.4032C18.5233 11.2332 18.7235 11.1471 18.954 11.145C19.1847 11.1426 19.3854 11.2266 19.5563 11.3967C19.7278 11.5671 19.8125 11.7678 19.8105 11.999C19.8085 12.2301 19.7226 12.4314 19.5528 12.6027L12.6028 19.5527C12.5108 19.6437 12.4151 19.7099 12.3158 19.7512C12.2163 19.7927 12.1108 19.8135 11.9993 19.8135C11.8878 19.8135 11.7825 19.7927 11.6835 19.7512C11.5844 19.7099 11.4889 19.6437 11.3973 19.5527L4.44727 12.5967C4.27344 12.4209 4.18652 12.2195 4.18652 11.9925C4.18652 11.7656 4.27394 11.5672 4.44877 11.3972C4.61894 11.2274 4.81769 11.1425 5.04502 11.1425C5.27219 11.1425 5.47077 11.2274 5.64077 11.3972L11.1483 16.905Z" fill="black" fill-opacity="0.8"/>
</svg>
