<svg width="24" height="24" viewBox="0 0 24 24" fill="none" xmlns="http://www.w3.org/2000/svg">
<path d="M10.3349 16.6483C10.2138 16.6483 10.1107 16.6086 10.0257 16.5293C9.94069 16.45 9.89819 16.3467 9.89819 16.2196V7.78056C9.89819 7.65339 9.94186 7.55014 10.0292 7.47081C10.1164 7.39147 10.2194 7.35181 10.3384 7.35181C10.3683 7.35181 10.4681 7.39939 10.6379 7.49456L14.6907 11.5476C14.748 11.6047 14.7943 11.6723 14.8294 11.7503C14.8648 11.8283 14.8824 11.9117 14.8824 12.0006C14.8824 12.0894 14.8648 12.1726 14.8294 12.2503C14.7943 12.328 14.748 12.3955 14.6907 12.4528L10.6372 16.5063C10.5964 16.5471 10.5502 16.5811 10.4987 16.6081C10.4472 16.6349 10.3926 16.6483 10.3349 16.6483Z" fill="black" fill-opacity="0.8"/>
</svg>
