<svg xmlns="http://www.w3.org/2000/svg" width="113.409" height="113.409" viewBox="0 0 113.409 113.409" fill="#000000">
  <path d="M 56.704 0 C 87.968 0 113.409 25.441 113.409 56.704 C 113.409 87.968 87.968 113.409 56.704 113.409 C 25.44 113.409 0 87.968 0 56.704 C 0 25.441 25.441 0 56.704 0 Z M 56.704 6.893 C 29.245 6.893 6.901 29.237 6.901 56.696 C 6.902 84.155 29.245 106.499 56.704 106.499 C 84.163 106.499 106.507 84.155 106.507 56.696 C 106.507 29.237 84.163 6.893 56.704 6.893 Z M 56.704 31.985 C 70.326 31.985 81.403 43.063 81.403 56.685 C 81.403 70.306 70.326 81.383 56.704 81.383 C 43.083 81.383 32.006 70.306 32.006 56.685 C 32.006 43.063 43.083 31.986 56.704 31.985 Z M 56.704 38.879 C 46.887 38.879 38.907 46.859 38.907 56.676 C 38.907 66.493 46.896 74.472 56.704 74.473 C 66.521 74.473 74.502 66.493 74.502 56.676 C 74.502 46.858 66.521 38.879 56.704 38.879 Z" fill-rule="nonzero"></path>
</svg>