<svg xmlns="http://www.w3.org/2000/svg" width="112.943" height="112.942" viewBox="0 0 112.943 112.942" fill="#000000">
  <path d="M 56.472 0 C 87.606 0 112.943 25.337 112.943 56.472 C 112.943 87.606 87.606 112.942 56.472 112.942 C 25.337 112.942 0 87.606 0 56.472 C 0 25.337 25.329 0 56.472 0 Z M 59.922 17.115 L 53.021 17.115 L 53.021 7.03 C 28.417 8.73 8.705 28.46 7.031 53.072 L 17.063 53.072 L 17.063 59.974 L 7.039 59.974 C 8.764 84.534 28.451 104.204 53.021 105.903 L 53.021 95.931 L 59.922 95.931 L 59.922 105.903 C 84.491 104.204 104.178 84.534 105.903 59.974 L 95.879 59.974 L 95.879 53.072 L 105.912 53.072 C 104.238 28.46 84.526 8.73 59.922 7.03 L 59.922 17.115 Z M 81.735 36.141 L 36.161 81.715 L 31.281 76.835 L 76.855 31.261 L 81.735 36.141 Z" fill-rule="nonzero"></path>
</svg>