<svg xmlns="http://www.w3.org/2000/svg" width="112.744" height="111.707" viewBox="0 0 112.744 111.707" fill="#000000">
  <path d="M 112.744 111.707 L 105.843 111.707 L 105.843 70.954 L 6.901 70.954 L 6.901 111.707 L 0 111.707 L 0 64.053 L 112.744 64.053 L 112.744 111.707 Z M 56.367 0 C 71.939 0 84.611 12.673 84.611 28.244 C 84.611 43.816 71.939 56.488 56.367 56.488 C 40.796 56.488 28.123 43.815 28.123 28.244 C 28.123 12.673 40.796 0 56.367 0 Z M 56.367 6.893 C 44.6 6.893 35.024 16.468 35.024 28.235 C 35.024 40.002 44.6 49.578 56.367 49.578 C 68.134 49.578 77.71 40.002 77.71 28.235 C 77.71 16.468 68.134 6.893 56.367 6.893 Z" fill-rule="evenodd"></path>
</svg>