<svg width="300" height="300" viewBox="0 0 300 300" fill="none" xmlns="http://www.w3.org/2000/svg">
<path d="M126.151 264.398C126.151 266.046 125.593 267.574 124.472 268.695C123.35 269.817 121.822 270.375 120.175 270.375H20.7578C19.1104 270.375 17.5823 269.817 16.4609 268.695C15.3396 267.574 14.7813 266.046 14.7812 264.398V241.979C14.7813 243.627 15.3396 245.155 16.4609 246.276C16.5639 246.379 16.6717 246.476 16.7812 246.569V264.398L16.7861 264.62C16.8788 266.809 18.3471 268.277 20.5361 268.37L20.7578 268.375H120.175L120.396 268.37C122.586 268.277 124.054 266.809 124.146 264.62L124.151 264.398V246.569C124.261 246.476 124.369 246.379 124.472 246.276C125.593 245.155 126.151 243.627 126.151 241.979V264.398ZM285.219 264.398C285.219 266.046 284.66 267.574 283.539 268.695C282.418 269.816 280.889 270.375 279.242 270.375H179.825C178.178 270.375 176.649 269.817 175.527 268.695C174.406 267.574 173.849 266.046 173.849 264.398V241.979C173.849 243.627 174.406 245.155 175.527 246.276C175.631 246.379 175.739 246.476 175.849 246.57V264.398L175.853 264.62C175.945 266.809 177.414 268.277 179.604 268.37L179.825 268.375H279.242L279.463 268.37C281.652 268.278 283.121 266.809 283.214 264.62L283.219 264.398V246.569C283.328 246.476 283.436 246.379 283.539 246.276C284.66 245.155 285.219 243.627 285.219 241.979V264.398ZM126.151 94.1961C126.151 95.8436 125.593 97.3725 124.472 98.494C123.35 99.6152 121.822 100.174 120.175 100.174C102.721 100.174 91.0526 105.58 83.6738 115.013C79.3781 120.505 76.4469 127.477 74.7314 135.786C74.0569 135.764 73.6288 135.54 73.3721 135.283C73.2026 135.113 73.0464 134.869 72.9531 134.528C77.9015 111.897 92.0279 98.4454 119.34 98.1776L120.175 98.1736C122.561 98.1736 124.151 96.5821 124.151 94.1961V76.368C124.261 76.2745 124.369 76.178 124.472 76.075C125.593 74.9535 126.151 73.4246 126.151 71.7772V94.1961ZM285.219 94.1961C285.219 95.8436 284.661 97.3725 283.539 98.494C282.418 99.6153 280.889 100.174 279.242 100.174C261.788 100.174 250.119 105.58 242.74 115.013C238.445 120.505 235.513 127.477 233.798 135.786C233.123 135.764 232.695 135.54 232.438 135.283C232.269 135.113 232.113 134.869 232.02 134.528C236.968 111.897 251.095 98.4452 278.407 98.1776L279.242 98.1736C281.553 98.1734 283.118 96.6802 283.214 94.4178L283.219 94.1961V76.368C283.328 76.2745 283.436 76.178 283.539 76.075C284.661 74.9535 285.219 73.4246 285.219 71.7772V94.1961Z" fill="black" fill-opacity="0.8"></path>
<path d="M120.175 28.6251C121.595 28.6251 122.856 29.1032 123.765 30.0118C124.674 30.9205 125.152 32.1815 125.152 33.6017V71.7775C125.152 73.1977 124.674 74.4596 123.765 75.3683C122.856 76.2768 121.595 76.755 120.175 76.755C102.5 76.755 90.5024 82.2414 82.886 91.9786C75.2316 101.765 71.8646 116.015 71.8645 133.814C71.8645 134.779 72.1821 135.507 72.6653 135.99C73.1484 136.473 73.8756 136.791 74.8411 136.791H120.175C121.595 136.791 122.856 137.268 123.765 138.177C124.674 139.086 125.152 140.347 125.152 141.768V241.98C125.152 243.4 124.674 244.661 123.765 245.569C122.856 246.478 121.595 246.956 120.175 246.956H20.7581C19.3379 246.956 18.0769 246.478 17.1682 245.569C16.2595 244.661 15.7815 243.4 15.7815 241.98V140.972C15.7815 107.454 22.7605 79.3428 39.3792 59.6017C56.026 39.8273 82.1953 28.6251 120.175 28.6251ZM279.242 28.6251C280.662 28.6252 281.924 29.1032 282.832 30.0118C283.741 30.9205 284.219 32.1816 284.219 33.6017V71.7775C284.219 73.1977 283.741 74.4596 282.832 75.3683C281.924 76.2769 280.662 76.7549 279.242 76.755C261.568 76.755 249.57 82.2416 241.953 91.9786C234.299 101.765 230.931 116.015 230.931 133.814C230.931 134.779 231.249 135.507 231.732 135.99C232.215 136.473 232.942 136.791 233.907 136.791H279.242C280.662 136.791 281.924 137.268 282.832 138.177C283.741 139.086 284.219 140.347 284.219 141.768V241.98C284.219 243.4 283.741 244.661 282.832 245.569C281.924 246.478 280.662 246.956 279.242 246.956H179.825C178.405 246.956 177.143 246.478 176.235 245.569C175.326 244.661 174.849 243.4 174.849 241.98V140.972C174.849 107.454 181.828 79.3428 198.447 59.6017C215.093 39.8273 241.263 28.6251 279.242 28.6251Z" stroke="black" stroke-opacity="0.8" stroke-width="2"></path>
</svg>